<?xml version="1.0" encoding="UTF-8"?>
<svg id="Lager_2" xmlns="http://www.w3.org/2000/svg" viewBox="0 0 118.25 77.39">
  <defs>
    <style>
      .cls-1 {
        fill: #18191d;
      }
    </style>
  </defs>
  <g id="Lager_1-2" data-name="Lager_1">
    <g>
      <path class="cls-1" d="M116.4,34.97c-.67-3.63-4.21-7.26-18.68-7.26H21c-14.47,0-18,3.63-18.68,7.26H.48V0h1.85c.67,3.73,4.21,7.26,18.68,7.26h76.72c14.47,0,18-3.54,18.68-7.26h1.85v34.97h-1.85Z"/>
      <path class="cls-1" d="M115.92,77.39c-.67-3.63-4.21-7.26-18.68-7.26H20.53c-14.47,0-18,3.63-18.68,7.26H0v-34.97h1.85c.67,3.73,4.21,7.26,18.68,7.26h76.72c14.47,0,18-3.54,18.68-7.26h1.85v34.97h-1.85Z"/>
    </g>
  </g>
</svg>