<?xml version="1.0" encoding="UTF-8"?>
<svg id="Lager_2" xmlns="http://www.w3.org/2000/svg" viewBox="0 0 118.58 108.03">
  <defs>
    <style>
      .cls-1 {
        fill: #fff;
      }

      .cls-2 {
        fill: #18191d;
      }
    </style>
  </defs>
  <g id="Lager_1-2" data-name="Lager_1">
    <g>
      <path class="cls-1" d="M53.18,18.98C19.07,18.98-4.66,54.74,3.35,70.94c1.77,3.58,18.93,29.6,53.04,29.6s71.77-30.55,57.13-41.03c-1.96-1.4-26.22-40.52-60.33-40.52Z"/>
      <path class="cls-2" d="M116.46,67.22c0,7.29-25.6,13.21-57.17,13.21S2.12,74.51,2.12,67.22s25.6-13.21,57.17-13.21,57.17,5.91,57.17,13.21ZM35.93,37.63c-8.59,0-15.56,13.25-15.56,29.59s6.96,29.59,15.56,29.59,15.56-13.25,15.56-29.59-6.96-29.59-15.56-29.59ZM59.29,0C26.54,0,0,24.18,0,54.01s26.54,54.01,59.29,54.01,59.29-24.18,59.29-54.01S92.03,0,59.29,0Z"/>
    </g>
  </g>
</svg>